<?xml version="1.0" encoding="UTF-8"?>
<svg version="1.1" xmlns="http://www.w3.org/2000/svg" width="1024" height="1024">
<path d="M0 0 C337.92 0 675.84 0 1024 0 C1024 337.92 1024 675.84 1024 1024 C686.08 1024 348.16 1024 0 1024 C0 686.08 0 348.16 0 0 Z " fill="#FCB093" transform="translate(0,0)"/>
<path d="M0 0 C5.03765335 3.50660184 9.47007151 7.42055041 13.94311523 11.62011719 C43.09342289 38.6478516 79.27351989 51.8369619 118.49121094 54.73095703 C120.56539709 54.88730993 122.63801652 55.05825917 124.7109375 55.23046875 C125.91943359 55.32134766 127.12792969 55.41222656 128.37304688 55.50585938 C132.4145635 56.16325532 135.22904889 57.20260104 138.8671875 59.07421875 C142.47781844 64.49016516 141.39751067 71.260919 140.2265625 77.47265625 C139.71791999 79.61194683 139.18513087 81.74573649 138.62109375 83.87109375 C134.41086631 101.75910672 135.05305105 123.33445567 139.8671875 141.07421875 C140.14925049 142.13261963 140.14925049 142.13261963 140.43701172 143.21240234 C145.8096131 162.62129883 155.45985831 180.89377663 169.8671875 195.07421875 C170.50398438 195.76902344 171.14078125 196.46382812 171.796875 197.1796875 C179.58700301 205.51731446 189.16397994 212.00747621 199.4921875 216.82421875 C204.48163886 219.15705707 207.37506555 222.08997486 209.8671875 227.07421875 C209.921875 229.0625 209.921875 229.0625 209.7421875 231.38671875 C209.67644531 232.52560547 209.67644531 232.52560547 209.609375 233.6875 C208.18518162 238.26740609 204.77379312 240.54688407 200.7578125 242.8828125 C181.92694089 251.30821321 163.59050716 254.631944 143.0546875 254.57421875 C142.23989929 254.57275848 141.42511108 254.57129822 140.58563232 254.5697937 C104.99404003 254.37276577 70.1946488 239.86652672 44.171875 215.46484375 C30.65660408 201.44561357 25.34770432 186.02047546 21.38232422 167.44995117 C19.71908526 159.33225497 19.71908526 159.33225497 15.8671875 152.07421875 C12.37050581 150.3258779 8.6726449 150.3763321 4.8671875 151.07421875 C-1.86176938 157.23049845 -3.57549619 165.6777033 -4.34301758 174.48681641 C-4.4366607 176.9154797 -4.46138448 179.33130439 -4.4453125 181.76171875 C-4.44112305 182.65528076 -4.43693359 183.54884277 -4.43261719 184.46948242 C-4.16910885 200.63459741 -1.62054115 216.56228713 2.8671875 232.07421875 C3.20234375 233.30398438 3.5375 234.53375 3.8828125 235.80078125 C11.13252456 260.8684476 23.37256366 283.90491321 39.8671875 304.07421875 C40.52332031 304.93273437 41.17945313 305.79125 41.85546875 306.67578125 C52.53679423 320.40595108 65.46220842 333.29617413 79.8671875 343.07421875 C80.53733887 343.5345752 81.20749023 343.99493164 81.89794922 344.46923828 C106.85207602 361.42331638 135.00609253 373.30224846 164.8671875 378.07421875 C166.48149658 378.33585815 166.48149658 378.33585815 168.12841797 378.6027832 C178.83890758 380.19419022 189.40057612 380.443767 200.20947266 380.53051758 C202.49157053 380.55224502 204.77287004 380.59160569 207.0546875 380.6328125 C207.73708496 380.63292831 208.41948242 380.63304413 209.12255859 380.63316345 C216.12631381 380.77649587 221.81144501 383.15891355 226.8671875 388.07421875 C231.04818887 393.69694473 230.57006867 400.38500128 229.8671875 407.07421875 C228.95170902 410.66889413 227.58475435 413.79377274 225.8671875 417.07421875 C225.43148438 417.91855469 224.99578125 418.76289062 224.546875 419.6328125 C211.86898012 442.39067298 185.29300378 453.27362073 161.53564453 460.33544922 C154.07298181 462.40150754 146.49645333 463.79011805 138.8671875 465.07421875 C137.64386719 465.29980469 136.42054688 465.52539062 135.16015625 465.7578125 C81.1156959 474.5529267 23.12499145 454.24148399 -20.39453125 423.04296875 C-27.9810829 417.50223879 -35.25898008 411.61307123 -42.36328125 405.46875 C-43.97632025 404.07411967 -45.59928284 402.69052319 -47.24609375 401.3359375 C-51.040476 398.2146164 -54.21142469 394.81079772 -57.390625 391.06640625 C-59.02354893 389.1991614 -60.72210389 387.48159479 -62.5078125 385.76171875 C-67.12668493 381.20456845 -71.10282165 376.14975731 -75.1328125 371.07421875 C-76.32583984 369.60662109 -76.32583984 369.60662109 -77.54296875 368.109375 C-84.09082778 359.88044915 -89.576397 351.17555629 -94.91796875 342.125 C-95.96390181 340.35935737 -97.03076235 338.60614202 -98.1015625 336.85546875 C-114.83773354 309.16471303 -126.25339353 275.97207617 -131.1328125 244.07421875 C-131.3966272 242.45386719 -131.3966272 242.45386719 -131.66577148 240.80078125 C-133.32667099 229.41006803 -133.47168174 218.10156608 -133.44848633 206.60351562 C-133.44533107 203.34340784 -133.46885602 200.08421489 -133.49414062 196.82421875 C-133.55269103 177.37029541 -130.85310884 158.9167835 -126.1328125 140.07421875 C-125.96587891 139.39891113 -125.79894531 138.72360352 -125.62695312 138.02783203 C-114.35517831 93.53455234 -86.83827077 51.74448729 -50.1328125 24.07421875 C-49.60896973 23.67928223 -49.08512695 23.2843457 -48.54541016 22.87744141 C-11.36628339 -4.93371641 -11.36628339 -4.93371641 0 0 Z " fill="#FEE5AE" transform="translate(384.1328125,370.92578125)"/>
<path d="M0 0 C0.70125 0.06703125 1.4025 0.1340625 2.125 0.203125 C4 0.75 4 0.75 6 3.75 C6 4.74 6 5.73 6 6.75 C6.66 6.75 7.32 6.75 8 6.75 C8.67756882 8.30780332 9.34159457 9.87150096 10 11.4375 C10.37125 12.30761719 10.7425 13.17773438 11.125 14.07421875 C12.01870488 16.8072002 12.16449676 18.89700934 12 21.75 C12.66 21.75 13.32 21.75 14 21.75 C14 23.07 14 24.39 14 25.75 C14.66 25.75 15.32 25.75 16 25.75 C16 27.4 16 29.05 16 30.75 C16.66 30.75 17.32 30.75 18 30.75 C18.103125 31.966875 18.20625 33.18375 18.3125 34.4375 C18.85915257 39.41984773 19.97065357 44.19267005 21.18359375 49.05078125 C21.45300781 50.27152344 21.72242188 51.49226562 22 52.75 C22.26466064 53.87341797 22.26466064 53.87341797 22.53466797 55.01953125 C24.55016948 64.9154459 24.30140222 74.91438688 24.26074219 84.96679688 C24.25004805 88.11087438 24.26066875 91.25437763 24.2734375 94.3984375 C24.28770133 115.62511776 24.28770133 115.62511776 22 125.75 C21.67 126.08 21.34 126.41 21 126.75 C20.70569228 128.08630117 20.46338167 129.43419222 20.24609375 130.78515625 C20.04790039 131.99848633 20.04790039 131.99848633 19.84570312 133.23632812 C19.64364258 134.5115332 19.64364258 134.5115332 19.4375 135.8125 C19.29892578 136.66650391 19.16035156 137.52050781 19.01757812 138.40039062 C18.67476995 140.51634451 18.33692384 142.63310118 18 144.75 C17.34 144.75 16.68 144.75 16 144.75 C16.04125 145.595625 16.0825 146.44125 16.125 147.3125 C15.98464972 151.17213269 15.17219836 154.08688013 14 157.75 C13.34 157.75 12.68 157.75 12 157.75 C12.04511719 158.636875 12.09023438 159.52375 12.13671875 160.4375 C11.99386619 163.89861355 11.36354663 165.69563125 9.8125 168.75 C7.14843478 174.26733962 5.09994237 179.89186181 3.11328125 185.68359375 C2.21332172 188.16242966 1.24672351 190.43302983 0 192.75 C-0.66 192.75 -1.32 192.75 -2 192.75 C-1.938125 193.8946875 -1.938125 193.8946875 -1.875 195.0625 C-2 197.75 -2 197.75 -4 200.75 C-4.66 200.75 -5.32 200.75 -6 200.75 C-6.11214844 201.30171875 -6.22429687 201.8534375 -6.33984375 202.421875 C-7.11360773 205.15065211 -8.26817694 207.47772943 -9.5625 210 C-10.01753906 210.89203125 -10.47257812 211.7840625 -10.94140625 212.703125 C-11.29074219 213.37859375 -11.64007812 214.0540625 -12 214.75 C-12.66 214.75 -13.32 214.75 -14 214.75 C-14.66 216.73 -15.32 218.71 -16 220.75 C-16.66 220.75 -17.32 220.75 -18 220.75 C-18 222.07 -18 223.39 -18 224.75 C-18.66 224.75 -19.32 224.75 -20 224.75 C-20 225.41 -20 226.07 -20 226.75 C-21.66666667 228.41666667 -23.33333333 230.08333333 -25 231.75 C-25.556875 232.678125 -26.11375 233.60625 -26.6875 234.5625 C-27.120625 235.284375 -27.55375 236.00625 -28 236.75 C-28.66 236.75 -29.32 236.75 -30 236.75 C-30.2475 237.719375 -30.495 238.68875 -30.75 239.6875 C-31.1625 240.698125 -31.575 241.70875 -32 242.75 C-34.125 243.625 -34.125 243.625 -36 243.75 C-36 244.74 -36 245.73 -36 246.75 C-36.66 246.75 -37.32 246.75 -38 246.75 C-38 247.41 -38 248.07 -38 248.75 C-38.66 248.75 -39.32 248.75 -40 248.75 C-40.26554687 249.33136719 -40.53109375 249.91273438 -40.8046875 250.51171875 C-44.15412122 256.78369758 -49.77580855 261.60756304 -55.140625 266.140625 C-56.81391355 267.58893358 -58.34780896 269.08844114 -59.875 270.6875 C-62 272.75 -62 272.75 -64 272.75 C-64 273.41 -64 274.07 -64 274.75 C-69.41176471 278.75 -69.41176471 278.75 -72 278.75 C-72 279.41 -72 280.07 -72 280.75 C-73.65 281.41 -75.3 282.07 -77 282.75 C-77 283.41 -77 284.07 -77 284.75 C-77.99 284.75 -78.98 284.75 -80 284.75 C-80 285.41 -80 286.07 -80 286.75 C-80.66 286.75 -81.32 286.75 -82 286.75 C-82 287.41 -82 288.07 -82 288.75 C-82.75925781 289.14832031 -83.51851562 289.54664063 -84.30078125 289.95703125 C-85.29464844 290.48683594 -86.28851562 291.01664063 -87.3125 291.5625 C-88.29863281 292.08457031 -89.28476562 292.60664062 -90.30078125 293.14453125 C-92.64428633 294.53842501 -94.17433941 295.77631288 -96 297.75 C-100.44444444 300.75 -100.44444444 300.75 -104 300.75 C-104 301.41 -104 302.07 -104 302.75 C-105.32 302.75 -106.64 302.75 -108 302.75 C-108 303.41 -108 304.07 -108 304.75 C-108.99 304.75 -109.98 304.75 -111 304.75 C-111 305.41 -111 306.07 -111 306.75 C-116.5583808 309.10208353 -122.12134007 311.44294272 -127.68798828 313.77539062 C-129.55595448 314.56281629 -131.41767151 315.36505653 -133.27734375 316.171875 C-137.6953886 318.05073537 -141.08991084 319.26685149 -146 318.75 C-146 319.41 -146 320.07 -146 320.75 C-147.98 320.75 -149.96 320.75 -152 320.75 C-152 321.41 -152 322.07 -152 322.75 C-153.95764383 322.94456705 -155.91615321 323.13044247 -157.875 323.3125 C-158.96554687 323.41691406 -160.05609375 323.52132813 -161.1796875 323.62890625 C-164 323.75 -164 323.75 -166 322.75 C-165.67 321.1 -165.34 319.45 -165 317.75 C-164.01 317.42 -163.02 317.09 -162 316.75 C-162 316.09 -162 315.43 -162 314.75 C-161.34 314.75 -160.68 314.75 -160 314.75 C-160 314.09 -160 313.43 -160 312.75 C-158.13671875 311.05859375 -158.13671875 311.05859375 -155.6875 309.1875 C-154.88699219 308.56746094 -154.08648438 307.94742187 -153.26171875 307.30859375 C-151 305.75 -151 305.75 -148 304.75 C-148 304.09 -148 303.43 -148 302.75 C-147.34 302.75 -146.68 302.75 -146 302.75 C-145.34 301.43 -144.68 300.11 -144 298.75 C-143.34 298.75 -142.68 298.75 -142 298.75 C-142 298.09 -142 297.43 -142 296.75 C-141.34 296.75 -140.68 296.75 -140 296.75 C-139.71125 295.986875 -139.4225 295.22375 -139.125 294.4375 C-138 291.75 -138 291.75 -136 288.75 C-135.34 288.75 -134.68 288.75 -134 288.75 C-133.855625 288.151875 -133.71125 287.55375 -133.5625 286.9375 C-133.1127561 285.18849596 -132.57107659 283.46322977 -132 281.75 C-131.34 281.75 -130.68 281.75 -130 281.75 C-129.855625 280.821875 -129.71125 279.89375 -129.5625 278.9375 C-129 275.75 -129 275.75 -128 272.75 C-127.34 272.75 -126.68 272.75 -126 272.75 C-125.11584355 267.38801894 -124.78645197 262.18134367 -124.75 256.75 C-124.7190625 255.59757813 -124.7190625 255.59757813 -124.6875 254.421875 C-124.65104933 249.06362686 -125.70771417 245.5758649 -128 240.75 C-128 239.76 -128 238.77 -128 237.75 C-128.66 237.75 -129.32 237.75 -130 237.75 C-130 236.76 -130 235.77 -130 234.75 C-130.86625 234.316875 -130.86625 234.316875 -131.75 233.875 C-133.83333333 232.83333333 -135.91666667 231.79166667 -138 230.75 C-138 230.09 -138 229.43 -138 228.75 C-141.30291738 228.01764622 -144.3936756 227.61328745 -147.77441406 227.56054688 C-148.69176331 227.54382935 -149.60911255 227.52711182 -150.55426025 227.5098877 C-151.53151062 227.49631226 -152.50876099 227.48273682 -153.515625 227.46875 C-154.52719666 227.45034058 -155.53876831 227.43193115 -156.58099365 227.41296387 C-160.90252246 227.33436483 -165.22419957 227.26626084 -169.54589844 227.19775391 C-172.7025565 227.14619926 -175.8590736 227.0889137 -179.015625 227.03125 C-180.00097229 227.01767456 -180.98631958 227.00409912 -182.00152588 226.9901123 C-182.90626648 226.97339478 -183.81100708 226.95667725 -184.74316406 226.93945312 C-185.54304749 226.92692505 -186.34293091 226.91439697 -187.16705322 226.90148926 C-189 226.75 -189 226.75 -190 225.75 C-191.80864198 225.56228263 -193.62267472 225.42578209 -195.4375 225.3125 C-201.08371816 224.89325985 -206.48474218 224.00679548 -212 222.75 C-212 222.09 -212 221.43 -212 220.75 C-214.31 220.75 -216.62 220.75 -219 220.75 C-219 220.09 -219 219.43 -219 218.75 C-219.928125 218.6675 -220.85625 218.585 -221.8125 218.5 C-226.232304 217.88788865 -230.21113779 216.30096063 -234.3515625 214.6875 C-236.89624135 213.78672872 -239.344038 213.2102389 -242 212.75 C-242 212.09 -242 211.43 -242 210.75 C-243.32 210.75 -244.64 210.75 -246 210.75 C-246 210.09 -246 209.43 -246 208.75 C-247.32 208.75 -248.64 208.75 -250 208.75 C-250 208.09 -250 207.43 -250 206.75 C-250.72316406 206.63269531 -251.44632812 206.51539063 -252.19140625 206.39453125 C-259.11671649 204.80527368 -265.17985003 200.67521742 -271 196.75 C-272.64619113 196.03426473 -274.30728055 195.3474304 -276 194.75 C-276 194.09 -276 193.43 -276 192.75 C-276.66 192.75 -277.32 192.75 -278 192.75 C-278 192.09 -278 191.43 -278 190.75 C-278.99 190.75 -279.98 190.75 -281 190.75 C-281 190.09 -281 189.43 -281 188.75 C-281.8971875 188.564375 -281.8971875 188.564375 -282.8125 188.375 C-285 187.75 -285 187.75 -288 185.75 C-288 185.09 -288 184.43 -288 183.75 C-288.5775 183.481875 -289.155 183.21375 -289.75 182.9375 C-292.05550043 181.72070811 -294.02056192 180.44666121 -296 178.75 C-296 178.09 -296 177.43 -296 176.75 C-296.804375 176.4096875 -296.804375 176.4096875 -297.625 176.0625 C-302.322061 173.46675576 -305.73407252 170.60555889 -308 165.75 C-309.32392972 164.73758315 -310.65599167 163.73560611 -312 162.75 C-312 162.09 -312 161.43 -312 160.75 C-312.66 160.75 -313.32 160.75 -314 160.75 C-315.5078125 159.10546875 -315.5078125 159.10546875 -317.125 156.9375 C-317.93324219 155.87595703 -317.93324219 155.87595703 -318.7578125 154.79296875 C-320 152.75 -320 152.75 -320 149.75 C-320.66 149.75 -321.32 149.75 -322 149.75 C-322 148.76 -322 147.77 -322 146.75 C-322.66 146.75 -323.32 146.75 -324 146.75 C-325.15082685 144.50243216 -326.29576858 142.25218252 -327.4375 140 C-327.76298828 139.36578125 -328.08847656 138.7315625 -328.42382812 138.078125 C-329.97063665 135.01640092 -331.3915078 132.14384379 -332 128.75 C-332.66 128.75 -333.32 128.75 -334 128.75 C-335.31626692 125.13026598 -336 122.65432869 -336 118.75 C-336.66 118.75 -337.32 118.75 -338 118.75 C-338 116.77 -338 114.79 -338 112.75 C-338.66 112.75 -339.32 112.75 -340 112.75 C-340 106.81 -340 100.87 -340 94.75 C-339.34 94.75 -338.68 94.75 -338 94.75 C-338 94.09 -338 93.43 -338 92.75 C-335.75487738 91.62743869 -334.48543351 91.61586238 -332 91.625 C-330.948125 91.62113281 -330.948125 91.62113281 -329.875 91.6171875 C-328 91.75 -328 91.75 -326 92.75 C-326 93.41 -326 94.07 -326 94.75 C-325.01 94.75 -324.02 94.75 -323 94.75 C-321.31126121 96.39429829 -319.64694485 98.06384218 -318 99.75 C-317.071875 100.306875 -316.14375 100.86375 -315.1875 101.4375 C-314.465625 101.870625 -313.74375 102.30375 -313 102.75 C-313 103.41 -313 104.07 -313 104.75 C-312.45859375 104.86214844 -311.9171875 104.97429687 -311.359375 105.08984375 C-308.49971779 105.88997963 -305.94256292 107.0623815 -303.25 108.3125 C-302.26515625 108.76753906 -301.2803125 109.22257813 -300.265625 109.69140625 C-299.14414062 110.21541016 -299.14414062 110.21541016 -298 110.75 C-298 111.41 -298 112.07 -298 112.75 C-296.68 112.75 -295.36 112.75 -294 112.75 C-294 113.41 -294 114.07 -294 114.75 C-292.68 114.75 -291.36 114.75 -290 114.75 C-290 115.41 -290 116.07 -290 116.75 C-289.43796875 116.88277344 -288.8759375 117.01554688 -288.296875 117.15234375 C-285.90633847 117.77437111 -283.58964225 118.52115041 -281.25 119.3125 C-280.45078125 119.58191406 -279.6515625 119.85132813 -278.828125 120.12890625 C-278.22484375 120.33386719 -277.6215625 120.53882813 -277 120.75 C-277 121.41 -277 122.07 -277 122.75 C-276.319375 122.688125 -275.63875 122.62625 -274.9375 122.5625 C-271.15833152 122.80372352 -268.44635655 124.20508155 -265 125.75 C-259.98372142 127.39169117 -255.22347885 128.20016012 -250 128.75 C-250 129.41 -250 130.07 -250 130.75 C-235.48 130.75 -220.96 130.75 -206 130.75 C-206 130.09 -206 129.43 -206 128.75 C-203.03 128.75 -200.06 128.75 -197 128.75 C-197 128.09 -197 127.43 -197 126.75 C-194.94921875 126.52213542 -192.8984375 126.29427083 -190.84765625 126.06640625 C-188.98859771 125.93113386 -188.98859771 125.93113386 -188 124.75 C-185.66666667 124.41666667 -183.33333333 124.08333333 -181 123.75 C-180.67 123.42 -180.34 123.09 -180 122.75 C-178.40608137 122.35224617 -176.79911776 122.00604817 -175.1875 121.6875 C-174.31480469 121.51089844 -173.44210937 121.33429688 -172.54296875 121.15234375 C-170 120.75 -170 120.75 -166 120.75 C-166 120.09 -166 119.43 -166 118.75 C-163.41958904 117.74183944 -160.83613056 116.7432889 -158.25 115.75 C-157.52039063 115.46382812 -156.79078125 115.17765625 -156.0390625 114.8828125 C-154.97558594 114.47675781 -154.97558594 114.47675781 -153.890625 114.0625 C-153.24125977 113.81113281 -152.59189453 113.55976562 -151.92285156 113.30078125 C-150 112.75 -150 112.75 -146 112.75 C-146 112.09 -146 111.43 -146 110.75 C-143.93950145 109.93243762 -141.87651147 109.12115266 -139.8125 108.3125 C-138.66394531 107.86003906 -137.51539063 107.40757812 -136.33203125 106.94140625 C-133.52876767 105.93906699 -130.92887424 105.22987205 -128 104.75 C-128 104.09 -128 103.43 -128 102.75 C-126.68 102.75 -125.36 102.75 -124 102.75 C-124 102.09 -124 101.43 -124 100.75 C-122.75539217 100.07332002 -121.50403104 99.40905281 -120.25 98.75 C-119.55390625 98.37875 -118.8578125 98.0075 -118.140625 97.625 C-116 96.75 -116 96.75 -112 96.75 C-112 96.09 -112 95.43 -112 94.75 C-111.38253906 94.50765625 -110.76507812 94.2653125 -110.12890625 94.015625 C-105.75464845 92.28456407 -101.44337582 90.50613675 -97.1875 88.5 C-93.99100209 87.04910733 -91.5695436 86.28941373 -88 86.75 C-88 86.09 -88 85.43 -88 84.75 C-86.56570999 84.07645501 -85.12742943 83.41140299 -83.6875 82.75 C-82.88699219 82.37875 -82.08648438 82.0075 -81.26171875 81.625 C-79 80.75 -79 80.75 -76 80.75 C-76 80.09 -76 79.43 -76 78.75 C-74.70449219 78.36134766 -74.70449219 78.36134766 -73.3828125 77.96484375 C-69.92690792 76.723751 -67.02754232 75.18709358 -63.875 73.3125 C-62.86179687 72.71566406 -61.84859375 72.11882812 -60.8046875 71.50390625 C-58.0399506 69.84634195 -58.0399506 69.84634195 -55.8203125 68.02734375 C-54 66.75 -54 66.75 -51 66.75 C-51 66.09 -51 65.43 -51 64.75 C-49.5390625 63.2421875 -49.5390625 63.2421875 -47.625 61.625 C-46.99851562 61.08617187 -46.37203125 60.54734375 -45.7265625 59.9921875 C-44 58.75 -44 58.75 -42 58.75 C-41.62875 57.88375 -41.62875 57.88375 -41.25 57 C-39.81700012 54.42060021 -38.21575324 52.68878408 -36 50.75 C-35.34 50.75 -34.68 50.75 -34 50.75 C-34 50.09 -34 49.43 -34 48.75 C-33.34 48.75 -32.68 48.75 -32 48.75 C-31.62875 47.69232422 -31.62875 47.69232422 -31.25 46.61328125 C-29.83896341 43.38112557 -28.0749274 40.78671098 -26 37.9375 C-25.29875 36.96167969 -24.5975 35.98585938 -23.875 34.98046875 C-23.25625 34.24441406 -22.6375 33.50835938 -22 32.75 C-21.34 32.75 -20.68 32.75 -20 32.75 C-20 31.76 -20 30.77 -20 29.75 C-19.34 29.75 -18.68 29.75 -18 29.75 C-18 28.76 -18 27.77 -18 26.75 C-17.34 26.75 -16.68 26.75 -16 26.75 C-15.896875 26.09 -15.79375 25.43 -15.6875 24.75 C-14.80786436 20.91158991 -13.43030104 17.41903309 -12 13.75 C-11.34 13.75 -10.68 13.75 -10 13.75 C-10.061875 12.4196875 -10.061875 12.4196875 -10.125 11.0625 C-10.00102754 7.77722987 -9.38612096 5.69550705 -8 2.75 C-7.34 2.75 -6.68 2.75 -6 2.75 C-6 2.09 -6 1.43 -6 0.75 C-3.64710301 -0.4264485 -2.58181049 -0.28475851 0 0 Z " fill="#A8CEAF" transform="translate(754,511.25)"/>
<path d="M0 0 C2.09123944 -0.00961489 4.18145501 -0.04065854 6.27246094 -0.07226562 C33.68976273 -0.28936546 61.17151179 9.99030091 81.62402344 28.24023438 C82.61402344 28.90023437 83.60402344 29.56023437 84.62402344 30.24023438 C84.62402344 30.90023437 84.62402344 31.56023437 84.62402344 32.24023438 C85.19894531 32.48386719 85.77386719 32.7275 86.36621094 32.97851562 C101.07944132 41.20061496 112.69483584 65.55713026 117.48095703 81.00634766 C126.3553721 113.23097695 123.91332485 145.63416428 107.93652344 175.30273438 C93.00844201 201.505171 67.07716994 224.14112726 37.83935547 232.64160156 C5.86677479 241.28131589 -26.32694833 240.96105569 -55.68847656 224.36523438 C-83.15730943 208.2141148 -102.22932903 184.74159118 -111.68847656 154.36523438 C-120.02890156 122.18972816 -117.81317758 89.07853388 -100.96166992 59.97973633 C-83.48945044 30.98871453 -56.73113997 10.96857732 -24.11035156 2.11523438 C-16.0760393 0.23271769 -8.20521876 0.0226977 0 0 Z " fill="#FEE5AD" transform="translate(497.3759765625,163.759765625)"/>
<path d="M0 0 C21.45677766 18.00836696 36.35802548 40.76602614 40 69 C41.64616315 97.86121789 34.22680262 121.57183315 15.12670898 143.58520508 C0.02267119 160.47847806 -22.20856901 172.80124162 -45 175 C-76.17063757 176.66757592 -100.62132671 170.19673122 -124.51953125 149.85546875 C-141.00073729 134.29790298 -153.07174818 111.17930698 -154.12255859 88.33569336 C-154.45783103 75.86863868 -154.5328267 64.04146565 -151 52 C-150.81824219 51.18789063 -150.63648438 50.37578125 -150.44921875 49.5390625 C-147.22670308 36.34209356 -139.14252496 23.81497985 -130 14 C-129.52578613 13.47954102 -129.05157227 12.95908203 -128.56298828 12.42285156 C-95.10016067 -24.04510694 -40.02087302 -29.89931502 0 0 Z " fill="#FEC29A" transform="translate(691,407)"/>
<path d="M0 0 C0.33 0.99 0.66 1.98 1 3 C1.99 3.33 2.98 3.66 4 4 C6.56096064 8.38777924 6.29851996 12.95022383 6.25 17.875 C6.25773438 18.65230469 6.26546875 19.42960938 6.2734375 20.23046875 C6.25676109 25.19170023 5.58064015 29.29571383 4 34 C3.34 34 2.68 34 2 34 C1.67 34.99 1.34 35.98 1 37 C-0.21077701 33.36766898 -0.12444164 30.04878013 -0.09765625 26.26953125 C-0.0962413 25.51911057 -0.09482635 24.76868988 -0.09336853 23.99552917 C-0.0877756 21.6011454 -0.07522444 19.20685547 -0.0625 16.8125 C-0.05748408 15.18815239 -0.05292134 13.56380332 -0.04882812 11.93945312 C-0.03780848 7.95959931 -0.02054873 3.97981556 0 0 Z " fill="#F4A692" transform="translate(624,750)"/>
<path d="M0 0 C2.31 0 4.62 0 7 0 C7 0.66 7 1.32 7 2 C7.66 2.33 8.32 2.66 9 3 C10.25390625 4.92578125 10.25390625 4.92578125 11.5625 7.3125 C11.99691406 8.09238281 12.43132813 8.87226562 12.87890625 9.67578125 C15.20736789 14.50307978 15.25193687 18.70932575 15 24 C14.34 24.99 13.68 25.98 13 27 C12.97421875 26.07058594 12.9484375 25.14117188 12.921875 24.18359375 C12.60931411 14.32892998 12.60931411 14.32892998 8 6 C5.93004824 4.49206191 3.85195162 3.18118502 1.609375 1.9453125 C1.07828125 1.63335938 0.5471875 1.32140625 0 1 C0 0.67 0 0.34 0 0 Z " fill="#F4A38C" transform="translate(601,752)"/>
<path d="M0 0 C1.14077657 3.42232972 1.09815117 6.08673217 1.0625 9.6875 C1.05347656 10.86699219 1.04445313 12.04648437 1.03515625 13.26171875 C1.02355469 14.16535156 1.01195312 15.06898438 1 16 C0.67 15.34 0.34 14.68 0 14 C-0.66 14 -1.32 14 -2 14 C-1.95875 15.0725 -1.9175 16.145 -1.875 17.25 C-1.9885825 20.65747485 -2.21273364 22.20739631 -4 25 C-4.33 25 -4.66 25 -5 25 C-5 23.02 -5 21.04 -5 19 C-4.34 19 -3.68 19 -3 19 C-3.04125 18.071875 -3.0825 17.14375 -3.125 16.1875 C-3.13555121 11.04906158 -2.18242431 5.98862227 -1 1 C-0.67 0.67 -0.34 0.34 0 0 Z " fill="#E6AC97" transform="translate(775,637)"/>
<path d="M0 0 C7.60913098 1.2794114 14.73225897 3.42756933 22 6 C22 6.33 22 6.66 22 7 C16.22772713 7.36844295 11.2769839 6.46863195 6 4 C5.67 3.34 5.34 2.68 5 2 C2.47266765 1.34444881 2.47266765 1.34444881 0 1 C0 0.67 0 0.34 0 0 Z " fill="#F4A78D" transform="translate(422,825)"/>
<path d="M0 0 C0.33 0 0.66 0 1 0 C1.04898438 0.61488281 1.09796875 1.22976563 1.1484375 1.86328125 C1.22320313 2.67152344 1.29796875 3.47976563 1.375 4.3125 C1.44460938 5.11300781 1.51421875 5.91351562 1.5859375 6.73828125 C1.89564426 9.27224441 1.89564426 9.27224441 4 12 C3.7578125 14.26171875 3.7578125 14.26171875 3.125 16.6875 C2.92132812 17.49574219 2.71765625 18.30398438 2.5078125 19.13671875 C2.34023438 19.75160156 2.17265625 20.36648438 2 21 C1.67 21 1.34 21 1 21 C-0.10087193 13.98194143 -0.09733092 7.09434233 0 0 Z " fill="#F1A893" transform="translate(776,627)"/>
<path d="M0 0 C0.66 0.33 1.32 0.66 2 1 C0.64527694 6.58823264 -3.58113173 9.69001754 -8 13 C-9.31464089 13.70280975 -10.6432185 14.38245147 -12 15 C-11.59007812 14.52949219 -11.18015625 14.05898438 -10.7578125 13.57421875 C-10.21898437 12.95160156 -9.68015625 12.32898438 -9.125 11.6875 C-8.59132813 11.07261719 -8.05765625 10.45773437 -7.5078125 9.82421875 C-5.8359553 7.86501788 -5.8359553 7.86501788 -4 5 C-3.34 5 -2.68 5 -2 5 C-2 4.34 -2 3.68 -2 3 C-1.34 3 -0.68 3 0 3 C0 2.01 0 1.02 0 0 Z " fill="#EFAB97" transform="translate(718,755)"/>
<path d="M0 0 C2.0625 0.4375 2.0625 0.4375 4 1 C3.34 1 2.68 1 2 1 C2 1.66 2 2.32 2 3 C3.98 3 5.96 3 8 3 C8 3.66 8 4.32 8 5 C6.00045254 5.04254356 3.99958364 5.04080783 2 5 C1.67 4.67 1.34 4.34 1 4 C-0.68608966 3.92794489 -2.37500659 3.91613932 -4.0625 3.9375 C-4.98160156 3.94652344 -5.90070312 3.95554687 -6.84765625 3.96484375 C-7.55792969 3.97644531 -8.26820313 3.98804688 -9 4 C-8.67 3.34 -8.34 2.68 -8 2 C-5.67284 1.62599214 -3.33882138 1.29235267 -1 1 C-0.67 0.67 -0.34 0.34 0 0 Z " fill="#BBC5A8" transform="translate(574,634)"/>
<path d="M0 0 C-0.33 1.98 -0.66 3.96 -1 6 C-2.98 6.33 -4.96 6.66 -7 7 C-7 5.68 -7 4.36 -7 3 C-2.92857143 0 -2.92857143 0 0 0 Z " fill="#F2A692" transform="translate(668,802)"/>
<path d="M0 0 C0.70125 0.01417969 1.4025 0.02835938 2.125 0.04296875 C3.176875 0.05263672 3.176875 0.05263672 4.25 0.0625 C6.125 0.23046875 6.125 0.23046875 8.125 1.23046875 C8.125 1.89046875 8.125 2.55046875 8.125 3.23046875 C9.115 3.23046875 10.105 3.23046875 11.125 3.23046875 C10.795 3.89046875 10.465 4.55046875 10.125 5.23046875 C8.475 5.23046875 6.825 5.23046875 5.125 5.23046875 C5.455 4.24046875 5.785 3.25046875 6.125 2.23046875 C2.825 2.23046875 -0.475 2.23046875 -3.875 2.23046875 C-1.875 0.23046875 -1.875 0.23046875 0 0 Z " fill="#BCC6A8" transform="translate(419.875,602.76953125)"/>
<path d="M0 0 C-0.66 1.32 -1.32 2.64 -2 4 C-4.31 3.67 -6.62 3.34 -9 3 C-9 2.34 -9 1.68 -9 1 C-3.375 -1.125 -3.375 -1.125 0 0 Z " fill="#FAA18F" transform="translate(626,828)"/>
<path d="M0 0 C-1.65 0.33 -3.3 0.66 -5 1 C-5 1.99 -5 2.98 -5 4 C-8.3 4 -11.6 4 -15 4 C-12.83900627 1.83900627 -11.4789582 1.28436284 -8.625 0.3125 C-7.46871094 -0.09548828 -7.46871094 -0.09548828 -6.2890625 -0.51171875 C-3.79944692 -1.04278009 -2.38446982 -0.81115526 0 0 Z " fill="#F4A48B" transform="translate(563,827)"/>
<path d="M0 0 C0.99 0 1.98 0 3 0 C3 1.98 3 3.96 3 6 C2.34 6 1.68 6 1 6 C0.67 5.34 0.34 4.68 0 4 C-1.65 5.98 -3.3 7.96 -5 10 C-5 6.68233477 -4.54749052 5.9296548 -2.6875 3.3125 C-2.25824219 2.68988281 -1.82898438 2.06726563 -1.38671875 1.42578125 C-0.92910156 0.95527344 -0.47148438 0.48476563 0 0 Z " fill="#F0A995" transform="translate(732,738)"/>
<path d="M0 0 C0.99 0 1.98 0 3 0 C4.04449911 3.13349732 3.93423645 3.98968256 3 7 C2.34 7 1.68 7 1 7 C1 5.68 1 4.36 1 3 C0.34 3 -0.32 3 -1 3 C-1.12375 3.78375 -1.2475 4.5675 -1.375 5.375 C-2 8 -2 8 -4 10 C-3.33333333 7.33333333 -2.66666667 4.66666667 -2 2 C-1.34 2 -0.68 2 0 2 C0 1.34 0 0.68 0 0 Z " fill="#B4C7AB" transform="translate(748,512)"/>
<path d="M0 0 C0.33 1.32 0.66 2.64 1 4 C-4.75 7 -4.75 7 -7 7 C-7 7.66 -7 8.32 -7 9 C-7.99 8.67 -8.98 8.34 -10 8 C-9.34 8 -8.68 8 -8 8 C-8 7.34 -8 6.68 -8 6 C-6.25 4.4921875 -6.25 4.4921875 -4 2.875 C-3.2575 2.33617187 -2.515 1.79734375 -1.75 1.2421875 C-1.1725 0.83226562 -0.595 0.42234375 0 0 Z " fill="#B1C9AC" transform="translate(602,818)"/>
<path d="M0 0 C0 0.66 0 1.32 0 2 C-1.65 2 -3.3 2 -5 2 C-5 2.66 -5 3.32 -5 4 C-4.01 4.33 -3.02 4.66 -2 5 C-5.3 5 -8.6 5 -12 5 C-12 4.34 -12 3.68 -12 3 C-10.3789897 2.30314502 -8.75303934 1.61777139 -7.125 0.9375 C-6.22007812 0.55464844 -5.31515625 0.17179688 -4.3828125 -0.22265625 C-2 -1 -2 -1 0 0 Z " fill="#B6C8A9" transform="translate(620,619)"/>
<path d="M0 0 C0.33 0 0.66 0 1 0 C1.44223108 8.69721116 1.44223108 8.69721116 -2 13 C-4.1875 14.8125 -4.1875 14.8125 -6 16 C-6 15.01 -6 14.02 -6 13 C-5.38125 12.46375 -4.7625 11.9275 -4.125 11.375 C-1.09306111 7.98636241 -0.71447818 4.39968142 0 0 Z " fill="#F4A68C" transform="translate(594,598)"/>
<path d="M0 0 C0.33 0.99 0.66 1.98 1 3 C1.66 3 2.32 3 3 3 C3.33 2.34 3.66 1.68 4 1 C4 1.66 4 2.32 4 3 C7.3 3 10.6 3 14 3 C14 3.33 14 3.66 14 4 C12.04235617 4.19456705 10.08384679 4.38044247 8.125 4.5625 C7.03445313 4.66691406 5.94390625 4.77132812 4.8203125 4.87890625 C2 5 2 5 0 4 C0 2.68 0 1.36 0 0 Z " fill="#B9C6A9" transform="translate(588,830)"/>
<path d="M0 0 C0.33 0 0.66 0 1 0 C0.28571429 8.57142857 0.28571429 8.57142857 -3 12 C-3.66 11.67 -4.32 11.34 -5 11 C-5 10.01 -5 9.02 -5 8 C-4.34 8 -3.68 8 -3 8 C-1.92474806 5.34771188 -0.90543849 2.71631546 0 0 Z " fill="#FBA48F" transform="translate(742,520)"/>
<path d="M0 0 C-0.66 0 -1.32 0 -2 0 C-2 0.66 -2 1.32 -2 2 C-1.34 2.33 -0.68 2.66 0 3 C-3.63 2.67 -7.26 2.34 -11 2 C-11 1.67 -11 1.34 -11 1 C-3.57142857 -1.42857143 -3.57142857 -1.42857143 0 0 Z " fill="#EEAA97" transform="translate(619,829)"/>
<path d="M0 0 C0 1.32 0 2.64 0 4 C-3.465 5.485 -3.465 5.485 -7 7 C-3.86206897 0 -3.86206897 0 0 0 Z " fill="#F9A390" transform="translate(718,761)"/>
<path d="M0 0 C1.24546405 2.49092811 0.7767578 3.41080733 0 6 C-1.65 6 -3.3 6 -5 6 C-5 5.01 -5 4.02 -5 3 C-2.5 1.3125 -2.5 1.3125 0 0 Z " fill="#F9A08F" transform="translate(656,810)"/>
<path d="M0 0 C0.66 0 1.32 0 2 0 C1.6875 2.875 1.6875 2.875 1 6 C0.01 6.66 -0.98 7.32 -2 8 C-2.66 7.34 -3.32 6.68 -4 6 C-3.525625 5.566875 -3.05125 5.13375 -2.5625 4.6875 C-0.76313043 2.97690387 -0.76313043 2.97690387 0 0 Z " fill="#F8A390" transform="translate(682,790)"/>
<path d="M0 0 C0.99 0 1.98 0 3 0 C1.8141763 3.37503669 0.72426311 5.64722731 -2 8 C-1.125 1.125 -1.125 1.125 0 0 Z " fill="#FAA18F" transform="translate(757,697)"/>
<path d="M0 0 C0.33 0.99 0.66 1.98 1 3 C-2 5 -2 5 -6 5 C-5.67 4.01 -5.34 3.02 -5 2 C-2.4375 0.8125 -2.4375 0.8125 0 0 Z " fill="#F8A490" transform="translate(688,583)"/>
<path d="M0 0 C0.66 0 1.32 0 2 0 C2 1.65 2 3.3 2 5 C2.66 5 3.32 5 4 5 C4 6.65 4 8.3 4 10 C3.01 9.67 2.02 9.34 1 9 C0.67 6.03 0.34 3.06 0 0 Z " fill="#C8BFA3" transform="translate(768,537)"/>
<path d="M0 0 C0.33 0.99 0.66 1.98 1 3 C-0.65 4.65 -2.3 6.3 -4 8 C-4.66 7.67 -5.32 7.34 -6 7 C-4.02 4.69 -2.04 2.38 0 0 Z " fill="#FD9F8E" transform="translate(732,741)"/>
</svg>
